<svg width="229" height="60" viewBox="0 0 229 60" fill="none" xmlns="http://www.w3.org/2000/svg">
<g clip-path="url(#clip0_306_1675)">
<path fill-rule="evenodd" clip-rule="evenodd" d="M8.5369 53.7403H21.4011C21.731 53.7403 21.6453 53.8286 21.7978 54.0455L23.8572 57.3657H6.08115C6.48589 56.7618 6.84902 56.1019 7.25081 55.4946L8.0977 54.1198C8.24816 53.8799 8.19226 53.7403 8.5369 53.7403ZM17.542 20.4102C17.542 18.3802 18.3187 17.6035 20.3487 17.6035C21.6646 17.6035 23.4231 19.9008 21.7016 21.7631C20.1982 23.3888 17.542 21.9522 17.542 20.4102ZM19.0622 47.8929C19.0622 49.2609 19.443 50.1187 19.9977 51.1673H9.94024C11.2087 48.77 11.7714 48.1808 12.8978 45.3539C15.549 38.7007 16.0613 31.4226 14.8685 24.2529C14.7193 23.3552 14.5869 22.5146 14.3856 21.6954C14.2789 21.2613 14.2116 20.9641 14.1019 20.459C13.9969 19.9739 13.8363 19.6823 13.7997 19.241C14.231 19.5297 14.2616 19.7113 14.5954 20.0824C15.4313 21.0108 14.7433 21.8791 16.3408 23.4825C19.4026 26.5557 23.9796 24.6816 24.7974 21.3504C25.2564 19.4809 24.7243 20.899 25.8507 19.0123C26.0654 18.6526 26.3269 18.3088 26.5416 17.949L27.0388 17.1601C27.1376 17.0273 27.1641 16.9991 27.2486 16.9021L19.427 45.8015C19.2458 46.4059 19.0622 47.1321 19.0622 47.8929ZM2.68985 16.668C3.45057 17.1773 4.44455 18.5492 6.39385 19.6301C7.62697 20.314 9.74439 21.2289 11.5777 21.2289C13.2551 28.4289 13.5299 36.2946 10.893 43.3487C10.7619 43.6996 10.4358 44.5221 10.408 44.8521C10.1105 44.6339 10.1596 44.5902 10.0525 44.1557C9.01098 39.9322 7.54376 35.1842 6.45647 30.9111L4.51936 23.8431C4.26677 22.9761 2.68985 17.4942 2.68985 16.668ZM10.8758 18.5391C8.97231 18.4966 6.44134 16.7306 5.11617 15.4109C4.36301 14.6611 3.72165 13.8171 3.15973 12.9207C3.01767 12.6941 2.85964 12.5071 2.863 12.257C2.86384 12.1856 3.04583 11.4753 3.08702 11.3349C3.5279 9.83155 4.43824 8.19915 5.46627 7.04798C6.40141 6.00104 6.48631 5.8304 7.76777 4.90535C12.288 1.64097 19.2845 1.81539 23.1852 5.76189C24.4301 7.02192 24.5079 6.96392 25.5186 8.57446C25.9246 9.22087 27.0149 11.4337 27.0149 12.3411C27.0149 12.5491 25.7565 14.3803 25.5439 14.7292C25.2497 15.2117 24.1863 16.7789 24.0909 17.1357C23.6337 16.6095 23.1907 16.093 22.5674 15.7358C19.5384 13.9995 16.2013 15.8215 15.7877 17.3698C15.2682 17.0218 11.5882 12.4773 11.0464 11.8195C10.1159 10.6906 8.54068 11.49 8.70081 12.6475L10.2088 16.5167C10.4597 17.1534 10.6207 18.007 10.8758 18.5391ZM0 14.3291C0 16.8529 0.0264781 17.5258 0.804012 19.9571C1.218 21.2512 1.49539 22.5898 1.88499 23.9049L5.12163 35.7545C5.43685 36.9111 8.30322 47.0842 8.30322 47.776C8.30322 49.6555 6.53338 51.7335 5.57597 53.352C5.15358 54.0665 2.45574 58.195 2.45574 58.535C2.45574 59.2898 2.89369 59.9383 3.62541 59.9383H26.313C26.9796 59.9383 27.4827 59.323 27.4827 58.6522C27.4827 58.2156 27.0657 57.6507 26.8484 57.2981L22.8418 50.8962C21.5911 48.7805 21.2603 48.6057 22.0618 45.8633C22.2673 45.1585 22.4384 44.565 22.6178 43.8472L29.1197 20.0593C29.8762 17.3518 29.9384 17.3219 29.9384 14.4459C29.9384 7.41447 23.2751 0.0615234 15.6709 0.0615234C11.9442 0.0615234 10.4967 0.455754 7.4059 2.08815C6.34299 2.64924 4.76607 3.90716 3.99358 4.87382L2.77264 6.34231C2.51543 6.68359 2.27754 7.00805 2.06698 7.39093C1.84338 7.79735 1.56978 8.25757 1.41805 8.61313C0.749374 10.1808 0 12.1255 0 14.3291Z" fill="#E8AF1E"/>
</g>
<path d="M74.08 5.58L69.01 27H63.37L61 15.75C60.96 15.53 60.9 15.2 60.82 14.76C60.74 14.32 60.65 13.84 60.55 13.32C60.47 12.8 60.39 12.31 60.31 11.85C60.25 11.37 60.2 11 60.16 10.74C60.14 11 60.09 11.37 60.01 11.85C59.93 12.31 59.84 12.8 59.74 13.32C59.66 13.82 59.58 14.3 59.5 14.76C59.42 15.2 59.35 15.54 59.29 15.78L56.92 27H51.28L46.21 5.58H50.95L53.32 17.28C53.38 17.62 53.46 18.04 53.56 18.54C53.66 19.02 53.76 19.53 53.86 20.07C53.96 20.59 54.05 21.1 54.13 21.6C54.21 22.1 54.27 22.53 54.31 22.89C54.37 22.51 54.44 22.08 54.52 21.6C54.62 21.1 54.71 20.59 54.79 20.07C54.89 19.55 54.98 19.07 55.06 18.63C55.16 18.17 55.24 17.8 55.3 17.52L57.91 5.58H62.41L64.96 17.58C65.02 17.84 65.09 18.2 65.17 18.66C65.27 19.1 65.37 19.58 65.47 20.1C65.57 20.62 65.66 21.13 65.74 21.63C65.82 22.11 65.89 22.53 65.95 22.89C66.01 22.39 66.1 21.8 66.22 21.12C66.34 20.42 66.47 19.72 66.61 19.02C66.75 18.32 66.87 17.74 66.97 17.28L69.34 5.58H74.08ZM94.9471 16.26C94.9471 17.92 94.7571 19.43 94.3771 20.79C93.9971 22.13 93.4171 23.29 92.6371 24.27C91.8571 25.25 90.8471 26 89.6071 26.52C88.3871 27.04 86.9371 27.3 85.2571 27.3C83.5971 27.3 82.1571 27.04 80.9371 26.52C79.7171 25.98 78.7071 25.23 77.9071 24.27C77.1271 23.29 76.5371 22.12 76.1371 20.76C75.7571 19.4 75.5671 17.89 75.5671 16.23C75.5671 14.01 75.9071 12.08 76.5871 10.44C77.2871 8.8 78.3571 7.53 79.7971 6.63C81.2371 5.71 83.0671 5.25 85.2871 5.25C87.5271 5.25 89.3571 5.71 90.7771 6.63C92.1971 7.53 93.2471 8.81 93.9271 10.47C94.6071 12.11 94.9471 14.04 94.9471 16.26ZM80.6671 16.26C80.6671 17.76 80.8171 19.05 81.1171 20.13C81.4371 21.21 81.9371 22.04 82.6171 22.62C83.2971 23.2 84.1771 23.49 85.2571 23.49C86.3571 23.49 87.2371 23.2 87.8971 22.62C88.5771 22.04 89.0671 21.21 89.3671 20.13C89.6871 19.05 89.8471 17.76 89.8471 16.26C89.8471 14 89.4871 12.23 88.7671 10.95C88.0671 9.67 86.9071 9.03 85.2871 9.03C84.1871 9.03 83.2971 9.32 82.6171 9.9C81.9371 10.48 81.4371 11.31 81.1171 12.39C80.8171 13.47 80.6671 14.76 80.6671 16.26ZM105.118 5.58C106.938 5.58 108.448 5.82 109.648 6.3C110.848 6.76 111.738 7.47 112.318 8.43C112.918 9.37 113.218 10.56 113.218 12C113.218 12.98 113.058 13.84 112.738 14.58C112.438 15.3 112.018 15.92 111.478 16.44C110.938 16.94 110.328 17.35 109.648 17.67L115.528 27H110.098L105.568 18.78H103.738V27H98.8778V5.58H105.118ZM104.908 9.3H103.738V15.09H104.938C105.678 15.09 106.298 14.98 106.798 14.76C107.298 14.54 107.678 14.21 107.938 13.77C108.198 13.31 108.328 12.76 108.328 12.12C108.328 11.44 108.208 10.9 107.968 10.5C107.728 10.08 107.358 9.78 106.858 9.6C106.358 9.4 105.708 9.3 104.908 9.3ZM117.716 27V5.58H122.576V23.25H130.526V27H117.716ZM150.778 16.08C150.778 18.48 150.338 20.49 149.458 22.11C148.598 23.73 147.358 24.95 145.738 25.77C144.138 26.59 142.218 27 139.978 27H133.888V5.58H140.518C142.658 5.58 144.488 5.98 146.008 6.78C147.548 7.58 148.728 8.76 149.548 10.32C150.368 11.86 150.778 13.78 150.778 16.08ZM145.738 16.2C145.738 14.62 145.548 13.32 145.168 12.3C144.788 11.28 144.218 10.53 143.458 10.05C142.718 9.55 141.788 9.3 140.668 9.3H138.748V23.25H140.248C142.128 23.25 143.508 22.66 144.388 21.48C145.288 20.3 145.738 18.54 145.738 16.2ZM170.743 9.06C170.023 9.06 169.373 9.23 168.793 9.57C168.233 9.91 167.753 10.4 167.353 11.04C166.953 11.66 166.653 12.42 166.453 13.32C166.253 14.22 166.153 15.23 166.153 16.35C166.153 17.87 166.323 19.17 166.663 20.25C167.003 21.31 167.523 22.12 168.223 22.68C168.923 23.24 169.813 23.52 170.893 23.52C171.753 23.52 172.593 23.42 173.413 23.22C174.253 23.02 175.123 22.74 176.023 22.38V26.19C175.143 26.57 174.253 26.85 173.353 27.03C172.453 27.21 171.473 27.3 170.413 27.3C168.273 27.3 166.523 26.85 165.163 25.95C163.803 25.03 162.793 23.75 162.133 22.11C161.493 20.45 161.173 18.52 161.173 16.32C161.173 14.7 161.383 13.22 161.803 11.88C162.223 10.52 162.843 9.35 163.663 8.37C164.483 7.39 165.483 6.63 166.663 6.09C167.863 5.55 169.233 5.28 170.773 5.28C171.773 5.28 172.823 5.42 173.923 5.7C175.043 5.96 176.013 6.32 176.833 6.78L175.303 10.47C174.563 10.09 173.813 9.76 173.053 9.48C172.313 9.2 171.543 9.06 170.743 9.06ZM196.858 19.44C196.858 20.92 196.538 22.26 195.898 23.46C195.278 24.64 194.338 25.58 193.078 26.28C191.818 26.96 190.238 27.3 188.338 27.3C185.618 27.3 183.538 26.58 182.098 25.14C180.678 23.68 179.968 21.76 179.968 19.38V5.58H184.828V18.69C184.828 20.45 185.128 21.69 185.728 22.41C186.348 23.13 187.248 23.49 188.428 23.49C189.268 23.49 189.948 23.32 190.468 22.98C190.988 22.64 191.368 22.11 191.608 21.39C191.868 20.67 191.998 19.76 191.998 18.66V5.58H196.858V19.44ZM208.136 5.58C210.716 5.58 212.616 6.18 213.836 7.38C215.076 8.56 215.696 10.19 215.696 12.27C215.696 13.21 215.566 14.11 215.306 14.97C215.046 15.81 214.616 16.57 214.016 17.25C213.416 17.91 212.616 18.43 211.616 18.81C210.636 19.19 209.426 19.38 207.986 19.38H206.306V27H201.446V5.58H208.136ZM207.986 9.3H206.306V15.66H207.536C208.176 15.66 208.746 15.55 209.246 15.33C209.746 15.11 210.136 14.76 210.416 14.28C210.696 13.8 210.836 13.18 210.836 12.42C210.836 11.36 210.596 10.58 210.116 10.08C209.656 9.56 208.946 9.3 207.986 9.3Z" fill="#E8AF1E"/>
<path d="M65.56 57H62.32V47.22H52.09V57H48.85V35.58H52.09V44.46H62.32V35.58H65.56V57ZM77.8914 57H69.5814V55.14L72.1314 54.39V38.22L69.5814 37.44V35.58H77.8914V37.44L75.3714 38.22V54.39L77.8914 55.14V57ZM94.1969 51.21C94.1969 52.49 93.8869 53.58 93.2669 54.48C92.6469 55.38 91.7569 56.08 90.5969 56.58C89.4369 57.06 88.0569 57.3 86.4569 57.3C85.6769 57.3 84.9269 57.25 84.2069 57.15C83.4869 57.07 82.8169 56.95 82.1969 56.79C81.5769 56.63 81.0269 56.43 80.5469 56.19V53.13C81.3469 53.49 82.2869 53.82 83.3669 54.12C84.4469 54.4 85.5469 54.54 86.6669 54.54C87.6269 54.54 88.4269 54.41 89.0669 54.15C89.7069 53.89 90.1869 53.53 90.5069 53.07C90.8269 52.61 90.9869 52.07 90.9869 51.45C90.9869 50.79 90.8169 50.24 90.4769 49.8C90.1569 49.34 89.6469 48.92 88.9469 48.54C88.2669 48.14 87.3469 47.72 86.1869 47.28C85.3869 46.98 84.6569 46.65 83.9969 46.29C83.3569 45.91 82.7869 45.47 82.2869 44.97C81.8069 44.47 81.4369 43.89 81.1769 43.23C80.9169 42.57 80.7869 41.8 80.7869 40.92C80.7869 39.74 81.0769 38.73 81.6569 37.89C82.2569 37.05 83.0769 36.41 84.1169 35.97C85.1569 35.51 86.3669 35.28 87.7469 35.28C88.9069 35.28 89.9769 35.4 90.9569 35.64C91.9569 35.86 92.9069 36.17 93.8069 36.57L92.7869 39.24C91.9669 38.9 91.1369 38.62 90.2969 38.4C89.4569 38.18 88.5769 38.07 87.6569 38.07C86.8569 38.07 86.1869 38.19 85.6469 38.43C85.1069 38.67 84.6969 39 84.4169 39.42C84.1569 39.84 84.0269 40.33 84.0269 40.89C84.0269 41.55 84.1769 42.1 84.4769 42.54C84.7769 42.98 85.2569 43.39 85.9169 43.77C86.5769 44.13 87.4469 44.53 88.5269 44.97C89.7269 45.43 90.7469 45.93 91.5869 46.47C92.4469 47.01 93.0969 47.66 93.5369 48.42C93.9769 49.16 94.1969 50.09 94.1969 51.21ZM105.591 57H102.351V38.37H95.931V35.58H112.011V38.37H105.591V57ZM133.609 46.26C133.609 47.92 133.399 49.43 132.979 50.79C132.579 52.13 131.959 53.29 131.119 54.27C130.299 55.25 129.259 56 127.999 56.52C126.759 57.04 125.309 57.3 123.649 57.3C121.949 57.3 120.469 57.04 119.209 56.52C117.969 55.98 116.929 55.23 116.089 54.27C115.269 53.29 114.659 52.12 114.259 50.76C113.859 49.4 113.659 47.89 113.659 46.23C113.659 44.03 114.019 42.11 114.739 40.47C115.459 38.83 116.559 37.55 118.039 36.63C119.539 35.71 121.419 35.25 123.679 35.25C125.879 35.25 127.709 35.71 129.169 36.63C130.649 37.53 131.759 38.81 132.499 40.47C133.239 42.11 133.609 44.04 133.609 46.26ZM117.079 46.26C117.079 47.98 117.309 49.46 117.769 50.7C118.229 51.92 118.949 52.87 119.929 53.55C120.909 54.21 122.149 54.54 123.649 54.54C125.169 54.54 126.409 54.21 127.369 53.55C128.329 52.87 129.039 51.92 129.499 50.7C129.959 49.46 130.189 47.98 130.189 46.26C130.189 43.68 129.669 41.67 128.629 40.23C127.609 38.77 125.959 38.04 123.679 38.04C122.159 38.04 120.909 38.37 119.929 39.03C118.949 39.69 118.229 40.63 117.769 41.85C117.309 43.07 117.079 44.54 117.079 46.26ZM144.264 35.58C146.104 35.58 147.614 35.81 148.794 36.27C149.974 36.73 150.854 37.42 151.434 38.34C152.014 39.24 152.304 40.38 152.304 41.76C152.304 42.86 152.094 43.79 151.674 44.55C151.274 45.29 150.754 45.9 150.114 46.38C149.474 46.84 148.804 47.21 148.104 47.49L154.104 57H150.384L145.224 48.33H141.504V57H138.264V35.58H144.264ZM144.054 38.34H141.504V45.63H144.204C145.304 45.63 146.204 45.49 146.904 45.21C147.624 44.93 148.144 44.51 148.464 43.95C148.804 43.39 148.974 42.7 148.974 41.88C148.974 41.02 148.794 40.34 148.434 39.84C148.094 39.32 147.554 38.94 146.814 38.7C146.094 38.46 145.174 38.34 144.054 38.34ZM163.158 45.6L168.408 35.58H171.888L164.748 48.69V57H161.538V48.81L154.398 35.58H157.908L163.158 45.6Z" fill="white"/>
<defs>
<clipPath id="clip0_306_1675">
<rect width="29.9384" height="60" fill="white"/>
</clipPath>
</defs>
</svg>
