<svg width="173" height="48" viewBox="0 0 173 48" fill="none" xmlns="http://www.w3.org/2000/svg">
<path fill-rule="evenodd" clip-rule="evenodd" d="M6.88751 43.0314H17.2C17.4645 43.0314 17.3958 43.1022 17.5181 43.276L19.169 45.9377H4.91888C5.24333 45.4535 5.53443 44.9246 5.85653 44.4377L6.53543 43.3356C6.65605 43.1433 6.61124 43.0314 6.88751 43.0314ZM14.1064 16.3124C14.1064 14.6851 14.729 14.0625 16.3564 14.0625C17.4113 14.0625 18.821 15.9041 17.4409 17.397C16.2358 18.7002 14.1064 17.5486 14.1064 16.3124ZM15.3251 38.3438C15.3251 39.4405 15.6303 40.1281 16.0751 40.9688H8.0125C9.02933 39.047 9.48047 38.5746 10.3834 36.3085C12.5087 30.975 12.9194 25.1405 11.9633 19.3929C11.8436 18.6733 11.7375 17.9994 11.5761 17.3427C11.4905 16.9947 11.4366 16.7565 11.3487 16.3515C11.2645 15.9627 11.1358 15.7289 11.1065 15.3751C11.4521 15.6066 11.4767 15.7521 11.7443 16.0496C12.4144 16.7939 11.8628 17.49 13.1435 18.7753C15.598 21.2389 19.2671 19.7366 19.9227 17.0661C20.2906 15.5675 19.8641 16.7043 20.767 15.1918C20.9392 14.9034 21.1488 14.6278 21.3209 14.3394L21.7195 13.707C21.7987 13.6005 21.8199 13.578 21.8876 13.5001L15.6175 36.6673C15.4723 37.1518 15.3251 37.734 15.3251 38.3438ZM2.20025 13.3125C2.81008 13.7208 3.6069 14.8205 5.16955 15.6871C6.15808 16.2353 7.85549 16.9688 9.32515 16.9688C10.6698 22.7406 10.8902 29.0461 8.7763 34.701C8.67118 34.9823 8.40973 35.6417 8.38749 35.9062C8.14895 35.7313 8.18837 35.6963 8.10246 35.3479C7.26756 31.9622 6.09137 28.1559 5.21975 24.7304L3.66687 19.0644C3.46438 18.3694 2.20025 13.9749 2.20025 13.3125ZM8.76249 14.8125C7.23657 14.7784 5.20762 13.3627 4.1453 12.3047C3.54154 11.7037 3.02739 11.0271 2.57693 10.3085C2.46305 10.1269 2.33637 9.97695 2.33906 9.77648C2.33974 9.7192 2.48562 9.1498 2.51864 9.03727C2.87207 7.8321 3.60185 6.52349 4.42596 5.60066C5.17561 4.76139 5.24367 4.6246 6.27095 3.88303C9.89455 1.26615 15.5033 1.40598 18.6303 4.56968C19.6282 5.57977 19.6906 5.53328 20.5009 6.82437C20.8263 7.34255 21.7003 9.11645 21.7003 9.84386C21.7003 10.0106 20.6916 11.4786 20.5211 11.7583C20.2852 12.145 19.4328 13.4014 19.3563 13.6875C18.9898 13.2656 18.6347 12.8516 18.135 12.5652C15.7068 11.1734 13.0316 12.6339 12.7001 13.8751C12.2837 13.5962 9.33357 9.95303 8.89928 9.42574C8.15333 8.52077 6.89055 9.1616 7.01891 10.0895L8.22779 13.1912C8.42893 13.7016 8.55798 14.3859 8.76249 14.8125ZM0.0439453 11.4375C0.0439453 13.4607 0.0651714 14.0001 0.688478 15.9492C1.02035 16.9866 1.24272 18.0597 1.55504 19.1139L4.14968 28.6131C4.40237 29.5404 6.70019 37.6956 6.70019 38.2501C6.70019 39.7569 5.28141 41.4226 4.5139 42.7201C4.17529 43.2929 2.01258 46.6024 2.01258 46.875C2.01258 47.4801 2.36366 48 2.95024 48H21.1377C21.672 48 22.0753 47.5067 22.0753 46.969C22.0753 46.619 21.7411 46.1661 21.5669 45.8835L18.355 40.7515C17.3523 39.0554 17.0872 38.9152 17.7297 36.7168C17.8944 36.1518 18.0316 35.676 18.1754 35.1006L23.3876 16.0311C23.9941 13.8607 24.0439 13.8367 24.0439 11.5312C24.0439 5.89446 18.7024 0 12.6064 0C9.61894 0 8.45858 0.316033 5.98086 1.62464C5.12878 2.07443 3.86465 3.08284 3.24538 3.85776L2.26662 5.03497C2.06043 5.30855 1.86973 5.56865 1.70093 5.87559C1.52169 6.2014 1.30235 6.57033 1.18072 6.85536C0.644678 8.11208 0.0439453 9.67102 0.0439453 11.4375Z" fill="white"/>
<path d="M59.4299 4.4238L55.3655 21.5951H50.8443L48.9444 12.5765C48.9123 12.4002 48.8642 12.1356 48.8001 11.7829C48.7359 11.4302 48.6638 11.0454 48.5836 10.6285C48.5195 10.2117 48.4553 9.81888 48.3912 9.45012C48.3431 9.06533 48.303 8.76872 48.271 8.56029C48.2549 8.76872 48.2149 9.06533 48.1507 9.45012C48.0866 9.81888 48.0144 10.2117 47.9343 10.6285C47.8701 11.0294 47.806 11.4142 47.7419 11.7829C47.6778 12.1356 47.6216 12.4082 47.5735 12.6006L45.6736 21.5951H41.1524L37.088 4.4238H40.8878L42.7877 13.8031C42.8358 14.0756 42.8999 14.4123 42.9801 14.8131C43.0603 15.1979 43.1404 15.6068 43.2206 16.0397C43.3008 16.4565 43.3729 16.8653 43.437 17.2662C43.5012 17.667 43.5493 18.0117 43.5813 18.3003C43.6294 17.9957 43.6856 17.651 43.7497 17.2662C43.8298 16.8653 43.902 16.4565 43.9661 16.0397C44.0463 15.6228 44.1184 15.238 44.1826 14.8853C44.2627 14.5165 44.3269 14.2199 44.375 13.9955L46.4673 4.4238H50.0747L52.1189 14.0436C52.167 14.252 52.2231 14.5406 52.2872 14.9093C52.3674 15.2621 52.4475 15.6468 52.5277 16.0637C52.6079 16.4806 52.68 16.8894 52.7442 17.2902C52.8083 17.675 52.8644 18.0117 52.9125 18.3003C52.9606 17.8995 53.0327 17.4265 53.1289 16.8814C53.2251 16.3202 53.3294 15.7591 53.4416 15.1979C53.5538 14.6368 53.65 14.1718 53.7302 13.8031L55.6301 4.4238H59.4299Z" fill="white"/>
<path d="M76.1579 12.9854C76.1579 14.3161 76.0056 15.5266 75.701 16.6168C75.3964 17.691 74.9314 18.621 74.3061 19.4066C73.6808 20.1922 72.8712 20.7934 71.8771 21.2103C70.8991 21.6271 69.7367 21.8356 68.39 21.8356C67.0592 21.8356 65.9049 21.6271 64.9269 21.2103C63.9488 20.7774 63.1392 20.1761 62.4979 19.4066C61.8726 18.621 61.3996 17.683 61.079 16.5928C60.7743 15.5025 60.622 14.2921 60.622 12.9613C60.622 11.1817 60.8946 9.6345 61.4397 8.3198C62.0008 7.0051 62.8586 5.98701 64.013 5.26553C65.1674 4.52801 66.6344 4.15926 68.414 4.15926C70.2097 4.15926 71.6767 4.52801 72.815 5.26553C73.9534 5.98701 74.7951 7.01312 75.3402 8.34385C75.8854 9.65855 76.1579 11.2057 76.1579 12.9854ZM64.7104 12.9854C64.7104 14.1878 64.8307 15.222 65.0712 16.0878C65.3277 16.9535 65.7285 17.6189 66.2736 18.0839C66.8187 18.5488 67.5242 18.7813 68.39 18.7813C69.2718 18.7813 69.9772 18.5488 70.5063 18.0839C71.0514 17.6189 71.4442 16.9535 71.6847 16.0878C71.9413 15.222 72.0695 14.1878 72.0695 12.9854C72.0695 11.1737 71.7809 9.75475 71.2037 8.72864C70.6426 7.70253 69.7127 7.18948 68.414 7.18948C67.5322 7.18948 66.8187 7.42196 66.2736 7.88691C65.7285 8.35187 65.3277 9.01723 65.0712 9.88301C64.8307 10.7488 64.7104 11.7829 64.7104 12.9854Z" fill="white"/>
<path d="M84.3112 4.4238C85.7702 4.4238 86.9807 4.6162 87.9427 5.00099C88.9046 5.36974 89.6181 5.93891 90.0831 6.70849C90.5641 7.46204 90.8046 8.416 90.8046 9.57037C90.8046 10.356 90.6763 11.0454 90.4198 11.6386C90.1793 12.2158 89.8426 12.7128 89.4097 13.1297C88.9768 13.5305 88.4878 13.8592 87.9427 14.1157L92.6564 21.5951H88.3034L84.672 15.0055H83.2049V21.5951H79.3089V4.4238H84.3112ZM84.1429 7.40592H83.2049V12.0475H84.1669C84.7601 12.0475 85.2572 11.9593 85.658 11.7829C86.0588 11.6065 86.3634 11.342 86.5719 10.9893C86.7803 10.6205 86.8845 10.1796 86.8845 9.66657C86.8845 9.12145 86.7883 8.68856 86.5959 8.3679C86.4035 8.03121 86.1069 7.79071 85.7061 7.64642C85.3053 7.48609 84.7842 7.40592 84.1429 7.40592Z" fill="white"/>
<path d="M94.4103 21.5951V4.4238H98.3063V18.5889H104.679V21.5951H94.4103Z" fill="white"/>
<path d="M120.914 12.8411C120.914 14.765 120.561 16.3763 119.856 17.675C119.167 18.9737 118.173 19.9517 116.874 20.609C115.591 21.2664 114.052 21.5951 112.256 21.5951H107.374V4.4238H112.689C114.405 4.4238 115.872 4.74446 117.09 5.38578C118.325 6.02709 119.271 6.97303 119.928 8.2236C120.586 9.45814 120.914 10.9973 120.914 12.8411ZM116.874 12.9373C116.874 11.6707 116.722 10.6285 116.417 9.81086C116.112 8.99318 115.655 8.39195 115.046 8.00716C114.453 7.60634 113.707 7.40592 112.81 7.40592H111.27V18.5889H112.473C113.98 18.5889 115.086 18.1159 115.792 17.17C116.513 16.224 116.874 14.8131 116.874 12.9373Z" fill="white"/>
<path d="M136.919 7.21353C136.342 7.21353 135.821 7.34981 135.356 7.62237C134.907 7.89493 134.522 8.28774 134.201 8.80079C133.881 9.29781 133.64 9.90706 133.48 10.6285C133.32 11.35 133.239 12.1597 133.239 13.0575C133.239 14.276 133.376 15.3182 133.648 16.1839C133.921 17.0337 134.338 17.683 134.899 18.1319C135.46 18.5809 136.174 18.8053 137.039 18.8053C137.729 18.8053 138.402 18.7252 139.059 18.5648C139.733 18.4045 140.43 18.18 141.152 17.8915V20.9457C140.446 21.2504 139.733 21.4748 139.011 21.6191C138.29 21.7634 137.504 21.8356 136.655 21.8356C134.939 21.8356 133.536 21.4748 132.446 20.7533C131.356 20.0158 130.546 18.9897 130.017 17.675C129.504 16.3443 129.247 14.7971 129.247 13.0335C129.247 11.7348 129.416 10.5484 129.752 9.47417C130.089 8.38393 130.586 7.44601 131.243 6.66039C131.901 5.87478 132.702 5.26553 133.648 4.83264C134.61 4.39975 135.709 4.18331 136.943 4.18331C137.745 4.18331 138.586 4.29554 139.468 4.52C140.366 4.72843 141.144 5.01702 141.801 5.38578L140.575 8.34385C139.981 8.03922 139.38 7.77468 138.771 7.55022C138.178 7.32576 137.56 7.21353 136.919 7.21353Z" fill="white"/>
<path d="M157.854 15.5346C157.854 16.7211 157.598 17.7953 157.085 18.7572C156.588 19.7032 155.834 20.4567 154.824 21.0179C153.814 21.563 152.548 21.8356 151.024 21.8356C148.844 21.8356 147.176 21.2584 146.022 20.104C144.884 18.9336 144.315 17.3944 144.315 15.4865V4.4238H148.211V14.9334C148.211 16.3443 148.451 17.3383 148.932 17.9155C149.429 18.4927 150.151 18.7813 151.097 18.7813C151.77 18.7813 152.315 18.645 152.732 18.3724C153.149 18.0999 153.453 17.675 153.646 17.0978C153.854 16.5206 153.958 15.7911 153.958 14.9093V4.4238H157.854V15.5346Z" fill="white"/>
<path d="M166.895 4.4238C168.964 4.4238 170.487 4.90479 171.465 5.86676C172.459 6.81271 172.956 8.11939 172.956 9.78681C172.956 10.5404 172.852 11.2618 172.643 11.9513C172.435 12.6246 172.09 13.2339 171.609 13.779C171.128 14.3081 170.487 14.725 169.685 15.0296C168.9 15.3342 167.93 15.4865 166.775 15.4865H165.428V21.5951H161.532V4.4238H166.895ZM166.775 7.40592H165.428V12.5044H166.414C166.928 12.5044 167.384 12.4162 167.785 12.2398C168.186 12.0635 168.499 11.7829 168.723 11.3981C168.948 11.0133 169.06 10.5163 169.06 9.90706C169.06 9.05731 168.868 8.43203 168.483 8.03121C168.114 7.61435 167.545 7.40592 166.775 7.40592Z" fill="white"/>
<path d="M52.5999 45.6444H50.0025V37.8043H41.8017V45.6444H39.2044V28.4732H41.8017V35.5918H50.0025V28.4732H52.5999V45.6444Z" fill="white"/>
<path d="M62.4853 45.6444H55.8236V44.1534L57.8678 43.5521V30.5895L55.8236 29.9642V28.4732H62.4853V29.9642L60.4651 30.5895V43.5521L62.4853 44.1534V45.6444Z" fill="white"/>
<path d="M75.5565 41.0029C75.5565 42.029 75.308 42.9028 74.811 43.6243C74.3139 44.3458 73.6005 44.9069 72.6706 45.3078C71.7407 45.6925 70.6344 45.8849 69.3517 45.8849C68.7265 45.8849 68.1252 45.8449 67.548 45.7647C66.9709 45.7006 66.4338 45.6044 65.9367 45.4761C65.4397 45.3478 64.9988 45.1875 64.614 44.9951V42.5421C65.2553 42.8307 66.0089 43.0952 66.8747 43.3357C67.7404 43.5602 68.6223 43.6724 69.5201 43.6724C70.2897 43.6724 70.931 43.5682 71.444 43.3598C71.9571 43.1513 72.3419 42.8627 72.5984 42.494C72.8549 42.1252 72.9832 41.6923 72.9832 41.1953C72.9832 40.6662 72.8469 40.2253 72.5744 39.8726C72.3178 39.5038 71.909 39.1671 71.3479 38.8625C70.8027 38.5419 70.0652 38.2052 69.1353 37.8524C68.494 37.6119 67.9088 37.3474 67.3797 37.0588C66.8666 36.7542 66.4097 36.4015 66.0089 36.0006C65.6241 35.5998 65.3275 35.1349 65.1191 34.6058C64.9106 34.0767 64.8064 33.4594 64.8064 32.754C64.8064 31.808 65.0389 30.9984 65.5039 30.325C65.9848 29.6516 66.6422 29.1385 67.4759 28.7858C68.3096 28.4171 69.2796 28.2327 70.3859 28.2327C71.3158 28.2327 72.1735 28.3289 72.9592 28.5213C73.7608 28.6976 74.5224 28.9462 75.2439 29.2668L74.4262 31.4072C73.7688 31.1346 73.1035 30.9102 72.4301 30.7338C71.7567 30.5575 71.0512 30.4693 70.3137 30.4693C69.6724 30.4693 69.1353 30.5655 68.7024 30.7579C68.2695 30.9503 67.9409 31.2148 67.7164 31.5515C67.508 31.8882 67.4038 32.281 67.4038 32.7299C67.4038 33.259 67.524 33.6999 67.7645 34.0526C68.005 34.4054 68.3898 34.734 68.9189 35.0387C69.448 35.3273 70.1454 35.6479 71.0112 36.0006C71.9731 36.3694 72.7908 36.7702 73.4642 37.2031C74.1536 37.636 74.6747 38.1571 75.0274 38.7663C75.3801 39.3595 75.5565 40.1051 75.5565 41.0029Z" fill="white"/>
<path d="M84.6906 45.6444H82.0932V30.7098H76.9467V28.4732H89.8371V30.7098H84.6906V45.6444Z" fill="white"/>
<path d="M107.151 37.0348C107.151 38.3655 106.983 39.576 106.646 40.6662C106.326 41.7404 105.829 42.6703 105.155 43.4559C104.498 44.2416 103.664 44.8428 102.654 45.2597C101.66 45.6765 100.498 45.8849 99.167 45.8849C97.8042 45.8849 96.6177 45.6765 95.6077 45.2597C94.6136 44.8268 93.7799 44.2255 93.1065 43.4559C92.4492 42.6703 91.9602 41.7324 91.6395 40.6422C91.3189 39.5519 91.1585 38.3414 91.1585 37.0107C91.1585 35.2471 91.4471 33.7079 92.0243 32.3932C92.6015 31.0785 93.4833 30.0524 94.6697 29.3149C95.8722 28.5774 97.3793 28.2086 99.191 28.2086C100.955 28.2086 102.422 28.5774 103.592 29.3149C104.778 30.0364 105.668 31.0625 106.262 32.3932C106.855 33.7079 107.151 35.2551 107.151 37.0348ZM93.9002 37.0348C93.9002 38.4136 94.0845 39.6 94.4533 40.5941C94.822 41.5721 95.3992 42.3336 96.1848 42.8788C96.9705 43.4078 97.9645 43.6724 99.167 43.6724C100.385 43.6724 101.38 43.4078 102.149 42.8788C102.919 42.3336 103.488 41.5721 103.857 40.5941C104.225 39.6 104.41 38.4136 104.41 37.0348C104.41 34.9665 103.993 33.3552 103.159 32.2008C102.341 31.0304 101.019 30.4452 99.191 30.4452C97.9725 30.4452 96.9705 30.7098 96.1848 31.2389C95.3992 31.7679 94.822 32.5215 94.4533 33.4995C94.0845 34.4775 93.9002 35.6559 93.9002 37.0348Z" fill="white"/>
<path d="M115.693 28.4732C117.168 28.4732 118.378 28.6576 119.324 29.0263C120.27 29.3951 120.976 29.9482 121.44 30.6857C121.905 31.4072 122.138 32.3211 122.138 33.4274C122.138 34.3092 121.97 35.0547 121.633 35.6639C121.312 36.2572 120.895 36.7462 120.382 37.131C119.869 37.4997 119.332 37.7963 118.771 38.0208L123.581 45.6444H120.599L116.462 38.6942H113.48V45.6444H110.883V28.4732H115.693ZM115.524 30.6857H113.48V36.5297H115.645C116.526 36.5297 117.248 36.4175 117.809 36.193C118.386 35.9686 118.803 35.6319 119.06 35.183C119.332 34.734 119.468 34.1809 119.468 33.5236C119.468 32.8341 119.324 32.289 119.036 31.8882C118.763 31.4713 118.33 31.1667 117.737 30.9743C117.16 30.7819 116.422 30.6857 115.524 30.6857Z" fill="white"/>
<path d="M130.839 36.5057L135.048 28.4732H137.838L132.114 38.9828V45.6444H129.541V39.079L123.817 28.4732H126.631L130.839 36.5057Z" fill="white"/>
</svg>
